<svg width="260" height="160" viewBox="0 0 2609 1001" fill="none" xmlns="http://www.w3.org/2000/svg">
<path d="M606.221 695.058C594.642 694.717 583.353 698.718 574.574 706.275C565.687 714.126 559.633 724.685 557.348 736.32L543.336 796.802H627.017L621.408 822.44H537.727L498.086 994.288H467.24L506.899 822.476H464.836L470.435 796.837H512.899L526.92 736.356C530.853 716.775 541.127 699.035 556.155 685.88C570.915 673.765 589.543 667.365 608.633 667.853C619.519 667.283 630.345 669.782 639.88 675.064L633.07 699.1C624.8 696.373 616.139 695.019 607.432 695.094L606.221 695.058Z" fill="#0000FF"/>
<path d="M766.848 795.2C771.18 794.95 775.521 795.493 779.658 796.802L771.647 826.046C768.056 825.642 764.441 825.508 760.83 825.645C738.526 825.214 716.945 833.558 700.731 848.88C682.695 865.278 670.116 886.808 664.686 910.572L645.458 994.253H614.611L660.28 796.766H690.725L681.912 836.026C692.138 823.198 705.114 812.83 719.883 805.689C734.651 798.547 750.835 794.814 767.24 794.764L766.848 795.2Z" fill="#0000FF"/>
<path d="M965.526 994.69H934.679L941.49 965.847C931.491 976.887 919.23 985.644 905.542 991.52C891.855 997.396 877.062 1000.25 862.171 999.898C849.806 1000.27 837.522 997.783 826.27 992.643C815.018 987.502 805.099 979.841 797.282 970.253C780.867 950.669 775.249 925.395 780.048 894.95C783.783 866.122 797.884 839.639 819.716 820.447C840.409 801.929 867.261 791.789 895.029 792.005C911.92 791.435 928.614 795.763 943.101 804.468C956.065 812.644 965.935 824.907 971.152 839.32L980.757 796.856H1011.6L965.526 994.69ZM870.183 972.657C890.618 972.357 910.254 964.673 925.466 951.025C942.491 937.037 953.645 917.169 956.721 895.35C958.885 885.802 958.818 875.883 956.525 866.364C954.233 856.846 949.776 847.984 943.502 840.468C937.557 833.595 930.162 828.127 921.849 824.457C913.537 820.787 904.513 819.007 895.429 819.246C874.788 818.936 854.78 826.367 839.345 840.076C823.249 854.372 812.865 874.008 810.111 895.359C807.908 905.019 807.842 915.043 809.918 924.73C811.994 934.418 816.162 943.534 822.129 951.443C828.103 958.491 835.618 964.07 844.092 967.752C852.566 971.433 861.773 973.118 871.002 972.675L870.183 972.657Z" fill="#0000FF"/>
<path d="M1318.44 791.595C1327.88 791.041 1337.32 792.628 1346.06 796.235C1354.81 799.842 1362.62 805.377 1368.92 812.426C1374.99 819.876 1379.12 828.714 1380.94 838.151C1382.75 847.587 1382.2 857.327 1379.33 866.498L1349.69 994.281H1319.24L1347.69 871.706C1349.66 865.525 1350.15 858.963 1349.1 852.558C1348.06 846.152 1345.52 840.085 1341.68 834.851C1337.8 830.051 1332.83 826.241 1327.19 823.734C1321.55 821.227 1315.39 820.094 1309.23 820.429C1292.1 820.001 1275.47 826.168 1262.76 837.655C1248.33 850.674 1238.37 867.918 1234.32 886.929L1209.88 994.281H1179.04L1207.49 871.706C1209.47 865.525 1209.95 858.963 1208.91 852.557C1207.86 846.151 1205.32 840.083 1201.48 834.851C1197.6 830.05 1192.63 826.239 1186.99 823.731C1181.35 821.224 1175.19 820.092 1169.03 820.429C1132.98 820.429 1105.33 841.261 1095.33 885.727L1070.48 994.681H1039.63L1085.31 797.186H1115.74L1108.93 826.83C1116.85 815.832 1127.35 806.942 1139.5 800.937C1151.65 794.933 1165.09 791.997 1178.63 792.387C1193.08 791.877 1207.33 795.791 1219.49 803.604C1224.92 807.144 1229.6 811.73 1233.24 817.094C1236.89 822.459 1239.43 828.495 1240.72 834.851C1248.96 821.411 1260.59 810.375 1274.44 802.852C1288.29 795.328 1303.88 791.581 1319.64 791.987L1318.44 791.595Z" fill="#0000FF"/>
<path d="M1447.46 909.373C1446.91 917.738 1448.12 926.126 1451.02 933.993C1453.92 941.859 1458.44 949.027 1464.29 955.033C1470.42 960.963 1477.71 965.555 1485.71 968.52C1493.71 971.485 1502.23 972.758 1510.75 972.259C1525.56 972.575 1540.15 968.633 1552.79 960.9C1565.43 953.168 1575.58 941.97 1582.04 928.638L1609.29 936.249C1600.48 955.508 1586.11 971.69 1568.02 982.71C1550.29 993.514 1529.91 999.199 1509.14 999.135C1497.21 999.63 1485.3 997.761 1474.1 993.636C1462.89 989.511 1452.61 983.211 1443.85 975.098C1435.28 966.523 1428.6 956.245 1424.26 944.927C1419.91 933.61 1417.99 921.507 1418.62 909.4C1418.24 893.753 1421.19 878.205 1427.27 863.781C1433.34 849.356 1442.41 836.384 1453.86 825.72C1464.6 815.007 1477.34 806.52 1491.37 800.746C1505.39 794.971 1520.42 792.023 1535.58 792.069C1548.35 791.449 1561.08 793.889 1572.72 799.185C1584.35 804.48 1594.56 812.479 1602.48 822.515C1618.5 842.99 1624.11 869.385 1618.9 901.825H1447.85L1447.46 909.373ZM1533.58 818.446C1515.12 818.004 1497.1 824.106 1482.7 835.672C1468.54 846.949 1457.96 862.106 1452.27 879.293H1592.87C1593.84 862.733 1588.23 846.459 1577.25 834.025C1571.52 828.404 1564.68 824.039 1557.17 821.211C1549.66 818.383 1541.64 817.153 1533.63 817.601L1533.58 818.446Z" fill="#0000FF"/>
<path d="M1863.24 995.089H1836.01L1813.18 845.274L1719.84 995.089H1693L1665.76 796.801H1695.4L1715.43 951.424L1810.37 796.846H1834.81L1858.45 951.068L1949.77 796.846H1981.82L1863.24 995.089Z" fill="#0000FF"/>
<path d="M2170.12 821.641C2178.96 831.688 2185.36 843.635 2188.83 856.555C2192.3 869.475 2192.76 883.021 2190.15 896.144C2186.26 925.102 2171.86 951.618 2149.69 970.646C2128.51 989.761 2100.91 1000.2 2072.37 999.89C2059.01 1000.55 2045.67 998.271 2033.28 993.219C2020.89 988.167 2009.76 980.462 2000.67 970.646C1991.9 960.567 1985.57 948.603 1982.17 935.682C1978.78 922.762 1978.4 909.232 1981.08 896.144C1984.97 867.187 1999.36 840.669 2021.53 821.641C2042.83 802.405 2070.55 791.83 2099.25 791.997C2112.51 791.453 2125.73 793.825 2137.98 798.947C2150.22 804.069 2161.2 811.816 2170.12 821.641ZM2073.98 972.658C2094.82 972.655 2114.94 964.951 2130.45 951.026C2147.07 937.16 2157.93 917.595 2160.9 896.153C2162.97 886.509 2162.83 876.52 2160.47 866.941C2158.11 857.363 2153.6 848.447 2147.29 840.87C2141.23 833.784 2133.66 828.158 2125.13 824.412C2116.59 820.666 2107.32 818.897 2098.01 819.237C2077.03 819.167 2056.76 826.873 2041.13 840.87C2024.56 854.952 2013.73 874.621 2010.68 896.153C2008.73 905.674 2008.94 915.513 2011.29 924.943C2013.65 934.372 2018.1 943.152 2024.3 950.634C2030.41 957.759 2038.05 963.407 2046.65 967.154C2055.25 970.901 2064.59 972.649 2073.97 972.267L2073.98 972.658Z" fill="#0000FF"/>
<path d="M2372.02 795.2C2376.35 794.949 2380.7 795.492 2384.84 796.802L2376.82 826.046C2373.24 825.642 2369.62 825.509 2366.02 825.645C2343.71 825.214 2322.13 833.558 2305.92 848.88C2287.88 865.278 2275.3 886.808 2269.87 910.572L2250.63 994.253H2219.8L2265.47 796.766H2295.9L2287.09 836.026C2297.31 823.198 2310.29 812.83 2325.06 805.689C2339.83 798.547 2356.01 794.814 2372.42 794.764L2372.02 795.2Z" fill="#0000FF"/>
<path d="M2570.7 994.29H2531.45L2434.1 901.779L2412.85 994.29H2382.41L2456.11 673.811H2486.96L2438.49 884.117L2563.46 796.786H2608.33L2466.13 895.334L2570.7 994.29Z" fill="#0000FF"/>
<path d="M820.653 349.795C839 373.323 845.579 403.395 839.953 439.654C835.224 474.297 818.575 506.212 792.869 529.913C769.122 552.422 737.626 564.933 704.906 564.854C670.553 564.854 645.164 553.558 629.006 530.492L622.89 557.804H547.773L627.786 211.57L710.096 181.347L674.345 335.667C695.073 321.415 719.744 314.012 744.895 314.498C759.429 313.863 773.903 316.739 787.09 322.883C800.277 329.028 811.789 338.258 820.653 349.795ZM699.734 501.204C715.943 501.489 731.62 495.418 743.408 484.29C755.887 472.577 764.043 456.993 766.554 440.063C768.327 432.484 768.449 424.613 766.913 416.982C765.377 409.351 762.219 402.14 757.652 395.837C753.128 390.227 747.339 385.769 740.76 382.829C734.18 379.889 726.997 378.55 719.8 378.923C703.674 379.045 688.197 385.289 676.499 396.389C663.472 407.629 654.804 423.086 652.009 440.063C650.213 447.616 650.171 455.479 651.887 463.05C653.603 470.621 657.032 477.698 661.909 483.737C666.463 489.26 672.228 493.658 678.757 496.591C685.286 499.525 692.403 500.914 699.556 500.652L699.734 501.204Z" fill="black"/>
<path d="M1011.15 315.389C1027.47 314.731 1043.75 317.535 1058.92 323.617C1074.08 329.699 1087.79 338.921 1099.14 350.678C1121.73 374.322 1130.18 403.815 1124.56 440.065C1119.42 475.423 1101.29 507.601 1073.72 530.324C1047.12 553.071 1013.22 565.475 978.217 565.265C961.75 565.936 945.325 563.141 930.007 557.061C914.688 550.98 900.818 541.75 889.293 529.968C878.109 518.15 869.959 503.795 865.542 488.135C861.124 472.474 860.572 455.976 863.931 440.056C869.294 404.779 887.365 372.678 914.745 349.796C941.372 326.664 975.557 314.099 1010.83 314.481L1011.15 315.389ZM1028.06 484.736C1041.15 473.611 1049.7 458.071 1052.1 441.062C1053.86 433.478 1053.84 425.59 1052.05 418.014C1050.25 410.438 1046.73 403.379 1041.76 397.387C1037.24 391.954 1031.55 387.608 1025.12 384.669C1018.68 381.731 1011.67 380.275 1004.6 380.411C988.478 380.636 972.974 386.663 960.929 397.387C947.534 408.317 938.793 423.929 936.475 441.062C934.717 448.644 934.732 456.53 936.52 464.105C938.308 471.68 941.821 478.74 946.784 484.736C951.473 490.226 957.332 494.596 963.932 497.523C970.532 500.45 977.704 501.86 984.921 501.65C1000.94 501.504 1016.35 495.485 1028.22 484.736H1028.06Z" fill="black"/>
<path d="M1295.3 315.388C1311.63 314.732 1327.92 317.537 1343.09 323.619C1358.26 329.7 1371.97 338.921 1383.33 350.676C1405.95 374.32 1414.24 403.813 1408.71 440.063C1403.57 475.416 1385.46 507.591 1357.9 530.323C1331.29 553.077 1297.38 565.482 1262.37 565.264C1245.9 565.936 1229.48 563.141 1214.16 557.061C1198.84 550.98 1184.97 541.75 1173.45 529.967C1150.88 506.447 1142.41 476.331 1148.06 440.108C1153.36 404.808 1171.41 372.675 1198.8 349.786C1225.4 326.607 1259.6 314.016 1294.88 314.408L1295.3 315.388ZM1312.34 484.734C1325.43 473.609 1333.98 458.069 1336.38 441.06C1338.14 433.476 1338.12 425.588 1336.33 418.012C1334.53 410.436 1331.01 403.377 1326.04 397.386C1321.52 391.951 1315.83 387.603 1309.4 384.664C1302.97 381.725 1295.96 380.271 1288.89 380.409C1272.77 380.634 1257.26 386.661 1245.22 397.386C1231.84 408.336 1223.11 423.937 1220.75 441.06C1218.99 448.646 1219.01 456.538 1220.81 464.115C1222.61 471.692 1226.14 478.75 1231.12 484.734C1235.8 490.222 1241.65 494.591 1248.24 497.518C1254.84 500.446 1262 501.857 1269.21 501.649C1285.23 501.5 1300.63 495.482 1312.51 484.734H1312.34Z" fill="black"/>
<path d="M1489.15 480.999C1489.61 485.23 1490.98 489.312 1493.18 492.962C1495.37 496.611 1498.32 499.743 1501.84 502.141C1508.48 506.745 1516.36 509.214 1524.44 509.219C1530.59 509.538 1536.64 507.518 1541.36 503.566C1543.37 501.896 1545.01 499.812 1546.14 497.456C1547.28 495.1 1547.9 492.526 1547.96 489.91C1547.96 483.358 1541.36 478.266 1527.73 473.459L1497.59 462.66C1464.2 450.428 1446.78 429.722 1446.78 398.199C1446.48 386.632 1448.83 375.149 1453.64 364.627C1458.45 354.105 1465.61 344.822 1474.56 337.486C1495.31 321.254 1521.24 313.063 1547.55 314.421C1570.58 313.461 1593.32 319.9 1612.42 332.795C1620.61 338.576 1627.56 345.93 1632.87 354.429C1638.18 362.928 1641.74 372.4 1643.35 382.291L1578.03 397.523C1576.97 389.524 1573.34 382.085 1567.7 376.317C1564.64 373.407 1561.01 371.155 1557.05 369.697C1553.08 368.24 1548.86 367.609 1544.64 367.843C1538.29 367.481 1532.04 369.564 1527.17 373.665C1525.21 375.248 1523.64 377.255 1522.58 379.535C1521.51 381.814 1520.98 384.307 1521.02 386.822C1521.02 394.834 1527.17 401.386 1538.9 405.659L1564.79 414.562C1581.23 419.271 1596.15 428.195 1608.08 440.449C1617.78 452.006 1622.81 466.776 1622.17 481.853C1622.71 493.542 1620.38 505.186 1615.38 515.765C1610.38 526.344 1602.86 535.537 1593.49 542.54C1572.16 557.87 1546.33 565.657 1520.08 564.671C1496.38 565.244 1472.97 559.4 1452.33 547.756C1442.96 542.254 1434.94 534.731 1428.85 525.735C1422.76 516.74 1418.76 506.499 1417.13 495.759L1489.15 480.999Z" fill="black"/>
<path d="M1759.18 463.123C1754 486.153 1759.65 497.45 1777.06 497.45C1791.06 496.835 1804.8 493.481 1817.5 487.577L1821.28 548.896C1800.03 559.751 1776.44 565.251 1752.57 564.92C1724.38 564.92 1703.69 556.908 1690.48 540.884C1677.29 524.86 1674.46 501.349 1681.58 470.832L1702.74 381.454H1657.58L1671.71 321.498H1716.38L1734.26 246.203L1814.23 218.953L1790.94 321.507H1875.61L1861.46 381.258H1777.69L1759.18 463.123Z" fill="black"/>
<path d="M2009.02 314.863C2025.29 314.016 2041.52 317.178 2056.29 324.072C2071.05 330.965 2083.89 341.379 2093.69 354.398C2113.4 380.606 2119.51 415.547 2112.47 459.222H1937.01C1936.78 471.573 1941.33 483.536 1949.7 492.614C1954.31 496.874 1959.73 500.156 1965.64 502.258C1971.56 504.361 1977.83 505.241 1984.09 504.845C1994.58 505.21 2004.97 502.727 2014.15 497.661C2023.34 492.595 2030.98 485.135 2036.27 476.074L2102.15 491.127C2091.3 514.141 2073.79 533.369 2051.89 546.321C2030.03 559.041 2005.12 565.591 1979.83 565.274C1945.47 565.274 1918.22 555.392 1898.1 535.629C1887.81 525.282 1879.78 512.915 1874.52 499.309C1869.25 485.703 1866.86 471.154 1867.49 456.578C1867.11 437.697 1870.68 418.944 1877.97 401.523C1885.26 384.103 1896.11 368.4 1909.83 355.422C1922.91 342.325 1938.47 331.973 1955.6 324.973C1972.73 317.973 1991.09 314.466 2009.59 314.658L2009.02 314.863ZM2047.57 413.197C2043.81 387.381 2029.26 374.642 2003.34 374.642C1977.95 374.642 1958.67 387.336 1945.95 413.197H2047.57Z" fill="black"/>
<path d="M2357.17 320.081L2336.46 395.376H2322.38C2268.29 395.376 2234.39 424.994 2220.74 483.838L2203.97 557.726H2128.56L2183.12 321.524H2257.9L2249.42 358.21C2260.91 345.55 2274.93 335.448 2290.57 328.561C2306.21 321.673 2323.13 318.153 2340.22 318.23C2345.93 318.09 2351.63 318.713 2357.17 320.081Z" fill="black"/>
<path d="M388.763 232.095L85.4336 339.808L106.188 398.254L409.517 290.541L388.763 232.095Z" fill="#0000FF"/>
<path d="M422.767 88.806L119.438 196.519L140.192 254.965L443.521 147.252L422.767 88.806Z" fill="#0000FF"/>
<path d="M302.597 1.834e-05L0 106.205L20.4633 164.509L323.06 58.3035L302.597 1.834e-05Z" fill="#0000FF"/>
</svg>
